<?xml version="1.0" encoding="UTF-8"?>
<svg version="1.1" xmlns="http://www.w3.org/2000/svg" width="1193" height="1793">
<path d="M0 0 C1.00724121 0.09313477 2.01448242 0.18626953 3.05224609 0.28222656 C5.05244009 0.47119605 7.05229652 0.66378089 9.05175781 0.86035156 C10.67550447 1.01961155 12.2997415 1.17412374 13.92480469 1.31933594 C36.20724388 3.3346613 59.08518287 11.66436919 78.75 22.125 C80.45670214 22.96166902 82.16499366 23.79510511 83.875 24.625 C88.11557231 26.74528615 92.17205903 29.0931934 96.2109375 31.57421875 C97.99356847 32.66299489 99.79208387 33.72598262 101.6015625 34.76953125 C102.51679687 35.29933594 103.43203125 35.82914062 104.375 36.375 C105.63183594 37.09429687 105.63183594 37.09429687 106.9140625 37.828125 C107.51992188 38.25609375 108.12578125 38.6840625 108.75 39.125 C108.75 39.785 108.75 40.445 108.75 41.125 C109.62398437 41.37121094 110.49796875 41.61742187 111.3984375 41.87109375 C114.98070047 43.21131102 117.36803096 44.83908203 120.375 47.1875 C121.40367187 47.98414063 122.43234375 48.78078125 123.4921875 49.6015625 C124.28834473 50.22272949 124.28834473 50.22272949 125.10058594 50.85644531 C126.77998856 52.14806403 128.48187708 53.40239081 130.1953125 54.6484375 C130.74880371 55.05312256 131.30229492 55.45780762 131.87255859 55.87475586 C133.42926278 57.01087435 134.988021 58.1441768 136.546875 59.27734375 C137.63742187 60.19193359 137.63742187 60.19193359 138.75 61.125 C138.75 61.785 138.75 62.445 138.75 63.125 C139.45125 63.351875 140.1525 63.57875 140.875 63.8125 C144.84212838 65.62358035 148.7489082 68.1228164 150.75 72.125 C151.45125 72.516875 152.1525 72.90875 152.875 73.3125 C155.44089391 74.93012877 157.10743796 76.40403207 159.1875 78.5625 C161.37771261 80.83347967 163.20747039 82.42693046 165.875 84.1875 C169.18770168 86.41997287 171.20934504 89.06318504 173.75 92.125 C174.53375 92.57875 175.3175 93.0325 176.125 93.5 C179.45571795 95.56187302 181.54944991 98.17289892 184.06640625 101.14453125 C187.30347437 104.95240489 190.87230988 108.22927195 194.6875 111.4375 C198.16183471 114.42856259 200.73847197 117.61956341 203.37890625 121.34765625 C205.18906148 123.69415377 207.43205391 125.29504256 209.75 127.125 C210.389375 128.094375 211.02875 129.06375 211.6875 130.0625 C213.98047879 133.46722608 216.60557831 135.51579903 219.75 138.125 C220.78013277 139.77321244 221.78114628 141.44003702 222.75 143.125 C224.3959651 144.81211423 226.06237149 146.4795622 227.75 148.125 C230.75 151.74568966 230.75 151.74568966 230.75 154.125 C231.74 154.455 232.73 154.785 233.75 155.125 C235.37231445 156.93164063 235.37231445 156.93164063 237.11328125 159.28125 C237.75330078 160.13976562 238.39332031 160.99828125 239.05273438 161.8828125 C240.04756836 163.24019531 240.04756836 163.24019531 241.0625 164.625 C241.71412109 165.49898437 242.36574219 166.37296875 243.03710938 167.2734375 C246.68404886 172.19443292 250.17942519 177.18094796 253.50634766 182.32397461 C254.76829144 184.2670911 254.76829144 184.2670911 256.8125 186.1875 C259.02999143 188.40499143 260.52230726 190.85512155 262.140625 193.52734375 C264.2304126 196.90042325 266.42298306 200.19943953 268.625 203.5 C269.05683594 204.14984863 269.48867188 204.79969727 269.93359375 205.46923828 C273.02278336 210.09722467 276.23241194 214.621121 279.5703125 219.07421875 C280.75 221.125 280.75 221.125 280.75 225.125 C281.41 225.125 282.07 225.125 282.75 225.125 C284.046875 226.92578125 284.046875 226.92578125 285.5 229.4375 C286.03238281 230.35402344 286.56476562 231.27054688 287.11328125 232.21484375 C289.17278439 235.87672881 291.18272441 239.56331669 293.17578125 243.26171875 C295.37525849 247.26225675 297.70250218 251.18377714 300.0390625 255.10546875 C302.08410374 258.7146397 303.92259297 262.40222451 305.75 266.125 C309.71987616 274.1484483 313.72580862 282.13347647 318 290 C320.59122456 294.7840838 322.84856948 299.56622812 324.75390625 304.6640625 C325.94251464 307.60062441 327.36194841 310.37151476 328.8125 313.1875 C330.88761543 317.26030118 332.51446469 321.16760443 333.84375 325.52734375 C335.08720404 329.0915547 336.6427331 332.49522098 338.1875 335.9375 C340.73235117 341.62824428 342.90409865 347.30395154 344.78515625 353.25390625 C346.13832327 357.28053686 347.80584956 361.15135687 349.50390625 365.04296875 C350.77878913 368.19620572 351.85893435 371.37013559 352.91723633 374.60083008 C354.49324953 379.37784576 356.1628519 384.12302318 357.8125 388.875 C358.60938642 391.17707938 359.40626095 393.47916287 360.203125 395.78125 C361.71382588 400.14184228 363.22911503 404.50077702 364.75062561 408.85760498 C365.42095918 410.77862548 366.08955924 412.70024039 366.75756836 414.62207031 C367.60163871 417.04958189 368.4486122 419.47608681 369.29907227 421.90136719 C371.71634147 428.86683435 373.84171979 435.86512179 375.82788086 442.96484375 C376.97617651 446.90012014 378.35497117 450.6959067 379.875 454.5 C381.6409244 458.94650707 383.05000004 463.25516684 384.15576172 467.92431641 C385.37163127 472.42712992 387.1098049 476.76303186 388.75 481.125 C391.11716487 487.42028629 393.20858387 493.57751682 394.75 500.125 C395.17152344 501.38957031 395.17152344 501.38957031 395.6015625 502.6796875 C400.14440339 516.30821016 398.9734463 530.56926752 392.69580078 543.39306641 C390.29039947 547.79779457 387.19566305 551.50633295 383.75 555.125 C382.945625 555.970625 382.14125 556.81625 381.3125 557.6875 C380.466875 558.491875 379.62125 559.29625 378.75 560.125 C377.76580078 561.15753906 377.76580078 561.15753906 376.76171875 562.2109375 C371.81302257 567.35621402 366.83260868 571.41490161 360.75 575.125 C360.1919165 575.49987549 359.63383301 575.87475098 359.05883789 576.26098633 C353.73789849 579.76685462 348.27593226 582.10684697 342.3125 584.3125 C341.42240234 584.65474609 340.53230469 584.99699219 339.61523438 585.34960938 C328.77972242 589.42578809 319.04430809 590.49797063 307.51416016 590.49560547 C305.15061922 590.49995288 302.78899016 590.53628523 300.42578125 590.57421875 C287.03310677 590.67343348 275.461425 588.30927023 263.3125 582.37109375 C261.36000505 581.42163355 259.36337435 580.56238063 257.3515625 579.74609375 C253.6505305 578.08022794 250.40609468 576.10859773 247.125 573.75 C246.23300903 573.11167236 246.23300903 573.11167236 245.32299805 572.46044922 C237.46934952 566.65958836 229.11241603 559.34368574 223.75 551.125 C223.75 550.465 223.75 549.805 223.75 549.125 C223.09 549.125 222.43 549.125 221.75 549.125 C221.21375 547.97 220.6775 546.815 220.125 545.625 C218.62935502 542.62321429 217.0047018 540.01303769 214.9375 537.375 C204.75 524.29539642 204.75 524.29539642 204.75 519.125 C204.09 519.125 203.43 519.125 202.75 519.125 C202.39808594 518.45855469 202.04617188 517.79210937 201.68359375 517.10546875 C198.99850643 512.09283837 196.21969191 507.20987586 193.125 502.4375 C190.72504393 498.73516076 188.66198017 495.04848171 186.76953125 491.0703125 C185.62094372 488.87875469 184.28490602 486.90788775 182.875 484.875 C179.82798174 480.44297345 177.52018253 475.78674574 175.2421875 470.921875 C173.82501523 468.05501508 173.82501523 468.05501508 171.6953125 465.578125 C169.72968234 463.09937853 168.87427273 461.05519114 167.75 458.125 C166.49462384 455.97836112 165.19971917 453.85455385 163.875 451.75 C161.43641178 447.86494881 159.06009156 443.96463547 156.79931641 439.97314453 C151.88259681 431.31340341 146.93294078 422.63776239 141.3046875 414.41796875 C139.25525835 411.39531822 137.28396577 408.32374659 135.3125 405.25 C134.92803711 404.65171387 134.54357422 404.05342773 134.14746094 403.43701172 C132.33841763 400.61793197 130.54097532 397.79260977 128.7578125 394.95703125 C127.85675781 393.52423828 127.85675781 393.52423828 126.9375 392.0625 C126.15439453 390.80759766 126.15439453 390.80759766 125.35546875 389.52734375 C123.76231171 387.06880495 123.76231171 387.06880495 121.80078125 384.69140625 C119.59742135 381.93405872 117.68596511 379.0760779 115.75 376.125 C108.15321495 364.83597288 108.15321495 364.83597288 100.06640625 353.8984375 C98.94346644 352.38563431 97.8844223 350.8257484 96.83984375 349.2578125 C84.38666315 330.58968009 69.50803555 313.04758329 50.01953125 301.4921875 C47.75 300.125 47.75 300.125 45.82421875 298.6328125 C43.27600583 296.78043926 40.5744348 295.515766 37.75 294.125 C35.95262995 293.03014184 34.16111567 291.92562366 32.375 290.8125 C25.74909348 286.93032485 18.97343472 284.21823834 11.71435547 281.79052734 C9.92340071 281.18374849 8.14988111 280.52611425 6.37890625 279.86328125 C-10.53728157 274.2897396 -31.62849246 274.89914053 -48.25 281.125 C-49.61503865 281.59102934 -50.98096941 282.05445157 -52.34765625 282.515625 C-59.19415987 284.88906904 -65.65454367 287.54732935 -71.74609375 291.53515625 C-73.95286487 292.93633542 -76.17205535 294.15774807 -78.4765625 295.38671875 C-83.41734185 298.1121574 -87.77580021 301.37192874 -92.1875 304.875 C-92.97237793 305.49189697 -93.75725586 306.10879395 -94.56591797 306.74438477 C-99.60282987 310.73337304 -104.47505005 314.82932624 -109.1796875 319.20703125 C-111.07132327 320.95947118 -113.01700802 322.60303804 -115 324.25 C-127.7284771 335.34861113 -138.15244249 348.86588027 -148.171875 362.36328125 C-149.54002122 364.18147557 -150.94071614 365.97569819 -152.375 367.7421875 C-153.96401895 369.76156575 -155.26747748 371.69254827 -156.5 373.9375 C-157.0775 374.989375 -157.655 376.04125 -158.25 377.125 C-158.91 377.125 -159.57 377.125 -160.25 377.125 C-160.60771484 378.14400391 -160.60771484 378.14400391 -160.97265625 379.18359375 C-162.52675235 382.7622921 -164.55391425 385.93714239 -166.6875 389.1875 C-167.28014648 390.10499023 -167.28014648 390.10499023 -167.88476562 391.04101562 C-169.51223357 393.54585398 -171.16315239 396.00933567 -172.95703125 398.3984375 C-174.3772213 400.18224423 -174.3772213 400.18224423 -175.5 402.6875 C-177.04286524 405.71812815 -178.71568859 408.46313382 -180.5625 411.3125 C-183.5888978 415.99894723 -186.28916305 420.78929183 -188.91796875 425.70703125 C-190.52935074 428.63209122 -192.39800777 431.34701166 -194.25 434.125 C-195.782043 436.84341613 -197.26671912 439.58462122 -198.74609375 442.33203125 C-200.06132752 444.77460826 -201.39761147 447.20287648 -202.75 449.625 C-205.10509408 453.85053857 -207.41740252 458.09865673 -209.72265625 462.3515625 C-211.18851612 465.01335408 -212.68762517 467.65434454 -214.19897461 470.29052734 C-220.4112277 481.13347036 -226.41168748 492.07684522 -232.25 503.125 C-234.90053925 508.13369942 -237.56539892 513.1344679 -240.25 518.125 C-240.92264893 519.37579346 -240.92264893 519.37579346 -241.60888672 520.65185547 C-243.06653454 523.35456724 -244.5322299 526.05277384 -246 528.75 C-246.45995361 529.60360107 -246.91990723 530.45720215 -247.39379883 531.33666992 C-249.72115529 535.59423606 -252.08428598 539.41896718 -255.25 543.125 C-256.1471875 544.5171875 -256.1471875 544.5171875 -257.0625 545.9375 C-261.15104563 551.89509507 -266.08614464 557.08709233 -271.25 562.125 C-271.83394531 562.74246094 -272.41789063 563.35992188 -273.01953125 563.99609375 C-288.35913122 580.00131739 -312.56417467 590.08447586 -334.6484375 590.55859375 C-336.88621845 590.58090444 -339.12249707 590.58386445 -341.36035156 590.57104492 C-343.61616474 590.56253334 -345.86943458 590.59141993 -348.125 590.62304688 C-361.37041876 590.68844921 -373.25010509 588.00219764 -385.375 582.5 C-386.12507324 582.16226563 -386.87514648 581.82453125 -387.64794922 581.4765625 C-398.44103442 576.394214 -407.12349716 568.7919353 -415.25 560.125 C-416.02150391 559.37863281 -416.02150391 559.37863281 -416.80859375 558.6171875 C-418.78283761 556.57339033 -420.28052364 554.28789086 -421.87109375 551.94140625 C-423.24733153 550.02187368 -423.24733153 550.02187368 -425.24609375 548.26171875 C-432.29804564 540.74238604 -434.79309219 527.83528535 -434.640625 517.78515625 C-433.95778818 511.38697524 -432.19657187 505.26182976 -430.53515625 499.05859375 C-429.45754231 495.02158541 -428.61098258 490.99002212 -427.875 486.875 C-426.39806564 479.12742432 -424.13210999 471.65416844 -421.86987305 464.10400391 C-420.10682153 458.18495533 -418.51215502 452.28159105 -417.1875 446.25 C-415.55768662 438.89589919 -413.28429243 431.84487269 -410.8125 424.734375 C-409.59296319 421.20658402 -408.48547272 417.6540172 -407.40234375 414.08203125 C-405.25402903 407.04719355 -402.91555356 400.08631879 -400.52319336 393.1315918 C-399.81250289 391.06250841 -399.10828462 388.99129393 -398.40429688 386.91992188 C-395.94439792 379.72856747 -393.3050177 372.65884343 -390.31958008 365.6652832 C-389.01599278 362.56922618 -387.89481672 359.42955316 -386.8125 356.25 C-384.28514344 349.05736578 -381.32844784 342.09652672 -378.25 335.125 C-377.90066406 334.31417969 -377.55132812 333.50335937 -377.19140625 332.66796875 C-374.87803905 327.34050486 -372.2832953 322.17907147 -369.6171875 317.01953125 C-368.196821 314.17393607 -368.196821 314.17393607 -367.31640625 311.2265625 C-366.02312547 307.46515247 -364.23644273 304.15765726 -362.3125 300.6875 C-359.68076779 295.9171802 -357.3683 291.15385543 -355.25 286.125 C-351.11308104 277.1932628 -346.47911201 268.60904746 -341.33227539 260.22216797 C-339.43189822 257.12061292 -337.62686401 254.03451532 -336.0625 250.75 C-334.33630987 247.12655586 -332.15343019 243.92177671 -329.890625 240.61328125 C-327.39295613 236.82515013 -325.16476509 232.88809582 -322.89453125 228.9609375 C-316.34318986 217.66337491 -308.74497914 207.04826402 -300.9765625 196.5625 C-299.23119672 194.17151117 -299.23119672 194.17151117 -297.82421875 191.69921875 C-295.92150016 188.58782532 -293.7128136 185.77865413 -291.4375 182.9375 C-290.46031929 181.70752215 -289.48379076 180.47702596 -288.5078125 179.24609375 C-287.98606445 178.58851074 -287.46431641 177.93092773 -286.92675781 177.25341797 C-285.1218104 174.96228059 -283.3363409 172.6569496 -281.5546875 170.34765625 C-280.93311768 169.54287842 -280.31154785 168.73810059 -279.67114258 167.90893555 C-278.45282961 166.32991361 -277.23644939 164.74939813 -276.0222168 163.16723633 C-273.26048565 159.59520765 -270.49726226 156.27408922 -267.25 153.125 C-266.775625 152.320625 -266.30125 151.51625 -265.8125 150.6875 C-263.97784988 147.67867381 -261.74418404 145.61918404 -259.25 143.125 C-257.39506953 140.74924672 -255.58698127 138.34577498 -253.80078125 135.91796875 C-253.28902344 135.32628906 -252.77726563 134.73460937 -252.25 134.125 C-251.59 134.125 -250.93 134.125 -250.25 134.125 C-250.00894531 133.56554687 -249.76789063 133.00609375 -249.51953125 132.4296875 C-247.98474572 129.64346146 -246.09910706 127.58235585 -243.9375 125.25 C-241.30732993 122.39148719 -238.73023615 119.54026701 -236.3125 116.5 C-235.631875 115.71625 -234.95125 114.9325 -234.25 114.125 C-233.59 114.125 -232.93 114.125 -232.25 114.125 C-232.023125 113.58875 -231.79625 113.0525 -231.5625 112.5 C-228.47564893 106.91426949 -224.09380654 103.00693382 -219.30078125 98.91796875 C-215.2641437 95.38879421 -211.56581408 91.51006745 -207.875 87.625 C-204.87607287 84.76887893 -201.66605269 82.32524456 -198.37890625 79.8125 C-195.7952534 77.76454031 -193.55041024 75.48439512 -191.25 73.125 C-183.07368468 65.61946886 -174.22666629 59.06677161 -165.25 52.5625 C-164.50250488 52.02028809 -163.75500977 51.47807617 -162.98486328 50.91943359 C-158.462616 47.65989814 -153.87817083 44.51863439 -149.22802734 41.44458008 C-146.96464024 39.93463101 -144.76171911 38.35164941 -142.5625 36.75 C-133.38259388 30.29694002 -123.39439509 24.89801442 -113.25 20.125 C-112.64269043 19.83125488 -112.03538086 19.53750977 -111.40966797 19.23486328 C-100.29820502 13.88805393 -89.12135767 9.94165865 -77.17749023 6.88183594 C-75.00658013 6.32059656 -72.84299899 5.73084322 -70.68383789 5.12597656 C-61.24505315 2.5387053 -52.0197084 1.23809845 -42.26635742 0.54150391 C-39.92040806 0.373778 -37.57662227 0.186592 -35.23242188 -0.00390625 C-23.37114224 -0.94066436 -11.85397877 -1.10166339 0 0 Z " fill="#A63382" transform="translate(635.25,334.875)"/>
<path d="M0 0 C0.66 0 1.32 0 2 0 C1.71325186 34.66438956 -1.21878062 67.68034478 -7.44384766 101.79248047 C-8.00331993 105.01914718 -8.47521002 108.25031201 -8.9375 111.4921875 C-9.96001709 118.25199199 -11.59863703 124.77863933 -13.375 131.375 C-13.68953125 132.55892334 -14.0040625 133.74284668 -14.328125 134.96264648 C-14.94536261 137.28509863 -15.56473369 139.60698511 -16.18652344 141.92822266 C-16.84915446 144.43039057 -17.48809007 146.93470211 -18.1015625 149.44921875 C-19.99124481 157.04902802 -22.51784776 164.19501832 -25.43359375 171.44702148 C-27.17611754 175.79631972 -28.70526889 180.11576407 -30 184.625 C-34.25485923 198.98739401 -41.51891083 212.53977713 -48 226 C-48.69416016 227.45212891 -48.69416016 227.45212891 -49.40234375 228.93359375 C-52.92108311 236.14878657 -56.98066719 243.05606319 -61 250 C-62.33612144 252.33175297 -63.66825662 254.66574156 -65 257 C-65.66 257 -66.32 257 -67 257 C-67.2475 257.680625 -67.495 258.36125 -67.75 259.0625 C-71.92851142 268.88200184 -78.64499863 277.37371159 -85.23046875 285.68359375 C-87.81163878 289.06247637 -90.16523087 292.58937456 -92.51953125 296.12890625 C-93.25236328 297.05509766 -93.25236328 297.05509766 -94 298 C-94.66 298 -95.32 298 -96 298 C-96.2475 298.53625 -96.495 299.0725 -96.75 299.625 C-99.51035132 304.8696675 -102.81238339 308.84983766 -107 313 C-108.67146928 314.81885805 -110.3337498 316.64618964 -111.98828125 318.48046875 C-117.65168753 324.70559239 -123.53741302 330.69030271 -129.4987793 336.62915039 C-131.20023778 338.32519726 -132.89621263 340.02659821 -134.59179688 341.72851562 C-142.08198219 349.22394794 -149.62497818 356.31846547 -158.1875 362.58984375 C-160.2293174 364.11833557 -160.2293174 364.11833557 -162.6875 366.6875 C-164.99553573 368.99553573 -167.21784924 370.33070955 -170 372 C-170.74121094 372.75667969 -171.48242188 373.51335937 -172.24609375 374.29296875 C-175.14859748 377.14606816 -178.23664723 379.49278367 -181.5625 381.8125 C-182.1702124 382.24191895 -182.7779248 382.67133789 -183.40405273 383.11376953 C-188.3313264 386.57804856 -193.33306259 389.92169128 -198.37890625 393.2109375 C-201.05932494 394.99142255 -201.05932494 394.99142255 -203.67578125 397.14453125 C-206.31243322 399.24942148 -208.97783713 400.48891857 -212 402 C-213.80035861 403.13212735 -215.59117708 404.27949341 -217.375 405.4375 C-221.13396463 407.86084328 -224.85799402 410.01015515 -228.890625 411.9296875 C-231.4053027 413.20565359 -233.77724123 414.66114227 -236.1875 416.125 C-241.85392497 419.46710798 -247.68730623 422.35833591 -253.625 425.1875 C-254.49535889 425.60338379 -255.36571777 426.01926758 -256.26245117 426.44775391 C-261.34898766 428.84497308 -266.479884 431.03676196 -271.71386719 433.09106445 C-274.78393572 434.31168226 -277.79430385 435.65695746 -280.8125 437 C-286.29726038 439.36157605 -291.75818131 441.27559915 -297.48828125 442.94140625 C-300.03842667 443.71013752 -302.53346422 444.5190312 -305.04296875 445.40234375 C-315.92421561 449.22172782 -326.84179085 452.00267817 -338.12158203 454.38232422 C-340.99320444 454.99854175 -343.85368859 455.65343782 -346.71484375 456.31640625 C-404.65672092 469.45470134 -468.48894953 467.12800415 -526 453 C-527.92109568 452.55779848 -529.84290732 452.11868857 -531.765625 451.68359375 C-541.88420793 449.34355844 -551.6018128 446.21729507 -561.3515625 442.6484375 C-564.5723681 441.47493655 -567.80448052 440.45111805 -571.09765625 439.5 C-575.51636787 438.20042933 -579.63351128 436.54795598 -583.8125 434.625 C-588.74423576 432.40571891 -593.67637767 430.31955198 -598.75 428.4375 C-605.07458784 426.0492485 -610.99780529 423.09618916 -617 420 C-619.24965866 418.89513805 -621.49967346 417.79100101 -623.75 416.6875 C-629.07618549 414.02440725 -634.3064812 411.22560064 -639.5 408.3125 C-640.15838867 407.94406982 -640.81677734 407.57563965 -641.49511719 407.19604492 C-645.44885546 404.95603097 -649.22930523 402.54065331 -653 400 C-654.11375 399.38125 -655.2275 398.7625 -656.375 398.125 C-659.83673173 396.18826022 -662.89015222 393.85537401 -666.02734375 391.4375 C-667.82563095 390.12706497 -669.60528985 389.05085109 -671.5625 388 C-674.85972071 386.08161704 -677.43671618 384.03014146 -680.2265625 381.46484375 C-682.01586094 379.90736321 -682.01586094 379.90736321 -684.328125 378.63671875 C-687.5308719 376.67480215 -690.29758911 374.3282323 -693.125 371.875 C-694.27538528 370.88855693 -695.42643813 369.90289188 -696.578125 368.91796875 C-697.43760742 368.18199463 -697.43760742 368.18199463 -698.31445312 367.43115234 C-700.80650484 365.31521852 -703.33910158 363.25054443 -705.875 361.1875 C-707.58340806 359.79175813 -709.29174781 358.39593263 -711 357 C-711.73863281 356.39929687 -712.47726562 355.79859375 -713.23828125 355.1796875 C-714.86367458 353.83116478 -716.43883956 352.42239062 -718 351 C-718 350.34 -718 349.68 -718 349 C-718.58265625 348.7421875 -719.1653125 348.484375 -719.765625 348.21875 C-722.1802903 346.90165983 -723.81740177 345.44911616 -725.75 343.5 C-726.36359375 342.8915625 -726.9771875 342.283125 -727.609375 341.65625 C-729 340 -729 340 -729 338 C-729.58628174 337.74275146 -730.17256348 337.48550293 -730.77661133 337.22045898 C-733.1947906 335.89307585 -734.69159847 334.48131398 -736.57421875 332.47265625 C-737.23744141 331.76826416 -737.90066406 331.06387207 -738.58398438 330.33813477 C-739.27814453 329.58717529 -739.97230469 328.83621582 -740.6875 328.0625 C-741.76161133 326.90995728 -741.76161133 326.90995728 -742.85742188 325.73413086 C-748.15898523 320.00539031 -753.17901914 314.14020298 -758 308 C-758.67160156 307.17371094 -759.34320312 306.34742188 -760.03515625 305.49609375 C-764.27196376 300.27967757 -768.26556327 294.92792358 -772.18359375 289.46875 C-773.64375468 287.48418719 -775.13507829 285.60691303 -776.75 283.75 C-778.79199376 281.25422984 -780.32139257 278.76312347 -781.86328125 275.94140625 C-783.14358509 273.75477048 -784.57898927 271.74186283 -786.0625 269.6875 C-789.46493684 264.89616345 -792.56330004 259.95003586 -795.625 254.9375 C-796.08011963 254.19395264 -796.53523926 253.45040527 -797.00415039 252.68432617 C-800.13537339 247.5265171 -803.10771976 242.29507054 -806 237 C-806.36947754 236.32751221 -806.73895508 235.65502441 -807.11962891 234.9621582 C-812.71616828 224.71260976 -817.86487619 214.26347168 -822.8125 203.6875 C-823.35132813 202.54434326 -823.89015625 201.40118652 -824.4453125 200.22338867 C-827.65451923 193.29383141 -830.41020416 186.31466331 -832.91235352 179.1003418 C-834.16807626 175.52089778 -835.58547107 172.05552943 -837.0625 168.5625 C-839.54878659 162.50415345 -841.34742491 156.42280036 -842.9375 150.0625 C-843.89673947 146.27800052 -845.04504584 142.56587726 -846.21142578 138.84082031 C-849.32816537 128.84795493 -851.63778084 118.86933591 -853.5234375 108.578125 C-854.0198879 105.89240971 -854.53855347 103.2117301 -855.0625 100.53125 C-858.54647053 82.65862414 -861.18184363 65.27204786 -861.09765625 47.015625 C-861.0962413 45.83401794 -861.09482635 44.65241089 -861.09336853 43.43499756 C-861.08782617 39.70663792 -861.07528481 35.9783411 -861.0625 32.25 C-861.05747754 29.70312587 -861.05291595 27.1562508 -861.04882812 24.609375 C-861.0378757 18.40622902 -861.02119615 12.203119 -861 6 C-860.01 5.67 -859.02 5.34 -858 5 C-855.28515625 6.44140625 -855.28515625 6.44140625 -852.0625 8.5625 C-846.7290775 12.00011337 -841.30288329 14.922964 -835.5859375 17.69140625 C-832.55045065 19.22749099 -829.8177829 21.09963479 -827 23 C-825.28046073 23.74336377 -823.5600731 24.48496874 -821.83178711 25.20776367 C-820.22402186 25.90311197 -818.65280855 26.68173312 -817.08984375 27.47265625 C-808.32723961 31.89196218 -799.21939139 35.16656406 -789.9375 38.3125 C-788.98978226 38.64025925 -788.98978226 38.64025925 -788.0229187 38.97463989 C-779.05888106 42.06010604 -770.4121873 43.94343109 -761 45 C-759.59622888 45.20225733 -758.19255987 45.4052267 -756.7890625 45.609375 C-738.93247876 47.45025992 -719.08277965 46.83809706 -702 41 C-700.68 41 -699.36 41 -698 41 C-697.94054199 41.88631104 -697.94054199 41.88631104 -697.87988281 42.79052734 C-695.67010983 74.61247916 -691.26128798 107.01431271 -679.77880859 136.92626953 C-678.67771921 139.85813576 -677.72964862 142.83818777 -676.75 145.8125 C-674.40932803 152.35857929 -671.48421108 158.59955413 -668.5 164.875 C-668.0369043 165.85057861 -667.57380859 166.82615723 -667.09667969 167.83129883 C-664.67517651 172.83691144 -662.12646873 177.63883032 -659.08959961 182.29931641 C-658.00176873 183.99723931 -657.02260078 185.7273029 -656.0625 187.5 C-654.14718755 190.91189263 -651.82850844 193.92646901 -649.44140625 197.01953125 C-648.1035075 198.85778238 -647.00970281 200.68634414 -645.9375 202.6875 C-643.96320269 206.06291152 -641.78500252 208.2864078 -639 211 C-638 212.66666667 -637 214.33333333 -636 216 C-634.3434297 217.67670223 -632.67497314 219.34168142 -631 221 C-629.64808153 222.48114597 -628.29648749 223.96262586 -626.9543457 225.45263672 C-618.26756241 235.06832399 -609.04015296 244.09669391 -598.51171875 251.6953125 C-598.01285156 252.12585937 -597.51398438 252.55640625 -597 253 C-597 253.66 -597 254.32 -597 255 C-596.31164062 255.23332031 -595.62328125 255.46664063 -594.9140625 255.70703125 C-591.3884038 257.27136507 -588.45330001 259.40155356 -585.375 261.6875 C-580.13653347 265.5100712 -574.8229111 269.11409602 -569.3046875 272.52734375 C-567 274 -567 274 -565.0078125 275.56640625 C-562.75737888 277.17323337 -560.56906361 277.98292203 -558 279 C-555.77437636 280.26942978 -553.57261029 281.5594692 -551.375 282.875 C-546.30746614 285.83900426 -541.38168839 288.17412588 -535.7890625 290.01953125 C-532.71352915 291.10070614 -529.83252223 292.44167765 -526.875 293.8125 C-475.09277359 316.35636431 -406.60942694 316.53490604 -353 300 C-351.27906041 299.49597812 -349.5577081 298.99336323 -347.8359375 298.4921875 C-339.46025459 296.00282296 -331.57016947 293.13740649 -323.7109375 289.296875 C-321.46298509 288.22148566 -319.2943151 287.35131159 -316.9375 286.5625 C-312.2537827 284.89893867 -308.13622547 282.24480625 -303.890625 279.6953125 C-301.53977628 278.31657149 -299.21404083 277.09191283 -296.75 275.9375 C-293.11932384 274.18605581 -290.09995422 271.90689522 -286.9296875 269.43359375 C-284.68858564 267.76864561 -282.29932265 266.46455619 -279.8515625 265.12890625 C-276.74819205 263.23676689 -273.97415912 260.92823393 -271.13671875 258.6640625 C-269 257 -269 257 -265.75 254.875 C-262.75905008 252.83571597 -260.53285556 250.59042046 -258 248 C-249.69435781 240.32690672 -249.69435781 240.32690672 -245.40625 236.96875 C-243.15824547 235.12947357 -241.36296052 233.28135628 -239.5 231.0625 C-236.79356798 227.89227595 -233.94812112 224.94812112 -231 222 C-229.66172696 220.33729713 -228.32810215 218.67083819 -227 217 C-226.34 216.360625 -225.68 215.72125 -225 215.0625 C-222.81150881 212.93615562 -222.81150881 212.93615562 -220.875 209.75 C-220.25625 208.8425 -219.6375 207.935 -219 207 C-218.34 207 -217.68 207 -217 207 C-216.71769531 206.42024414 -216.43539062 205.84048828 -216.14453125 205.24316406 C-214.29745781 201.62308925 -212.13633458 198.2047582 -210 194.75 C-209.54882812 194.00492188 -209.09765625 193.25984375 -208.6328125 192.4921875 C-208.19710937 191.78835938 -207.76140625 191.08453125 -207.3125 190.359375 C-206.71888672 189.39209473 -206.71888672 189.39209473 -206.11328125 188.40527344 C-205.74589844 187.9415332 -205.37851562 187.47779297 -205 187 C-204.34 187 -203.68 187 -203 187 C-202.76216797 186.1646875 -202.76216797 186.1646875 -202.51953125 185.3125 C-200.76527701 179.57482866 -198.35556885 174.95083929 -195 170 C-192.48761419 166.18117356 -190.85159313 162.28302177 -189.21264648 158.03686523 C-187.93002308 154.82475481 -186.54199837 151.67155145 -185.14453125 148.5078125 C-182.14397708 141.57562221 -179.68319744 134.54740538 -177.5 127.3125 C-177.21635086 126.37562851 -177.21635086 126.37562851 -176.92697144 125.41983032 C-173.70112128 114.63949433 -171.42316427 103.77972489 -169.5625 92.6875 C-169.44293945 91.97485992 -169.32337891 91.26221985 -169.20019531 90.52798462 C-167.90776723 82.7031607 -166.8157249 74.8590591 -165.875 66.984375 C-165.79411636 66.30867966 -165.71323273 65.63298431 -165.62989807 64.93681335 C-164.93946548 58.92690624 -164.55995112 52.91905938 -164.24609375 46.87890625 C-164 44 -164 44 -163 42 C-162.40574219 42.12552246 -161.81148437 42.25104492 -161.19921875 42.38037109 C-113.79166578 52.1586397 -69.26925089 46.91910269 -28 21 C-24.54448064 18.6525254 -21.12494677 16.25334098 -17.70703125 13.8515625 C-17.01738281 13.37203125 -16.32773438 12.8925 -15.6171875 12.3984375 C-14.99440918 11.96192871 -14.37163086 11.52541992 -13.72998047 11.07568359 C-12 10 -12 10 -9 9 C-8.731875 8.401875 -8.46375 7.80375 -8.1875 7.1875 C-6.49163334 4.06353511 -3.97901205 2.83811382 -1 1 C-0.67 0.67 -0.34 0.34 0 0 Z " fill="#83529D" transform="translate(1047,992)"/>
<path d="M0 0 C2.35525714 1.83748987 4.77831935 3.43382663 7.30078125 5.03125 C10.71817099 7.27523512 12.89744741 9.55597155 15.36328125 12.84375 C16.51054275 13.86595456 17.67916205 14.86447842 18.86328125 15.84375 C21.78254732 18.27233092 24.04184741 20.82588601 26.36328125 23.84375 C27.22953125 24.648125 28.09578125 25.4525 28.98828125 26.28125 C31.58336216 29.08120572 32.22420299 31.26378977 33.36328125 34.84375 C34.35328125 35.17375 35.34328125 35.50375 36.36328125 35.84375 C46.28420495 48.67253064 52.07534325 65.98572244 54.98828125 81.65625 C55.20484375 82.76806641 55.42140625 83.87988281 55.64453125 85.02539062 C60.84099714 112.43514432 58.77195331 140.45472702 45.26806641 165.14404297 C44.10486423 167.32920583 43.12083073 169.58336745 42.11328125 171.84375 C38.62940029 178.88359221 33.45756505 185.00511321 28.64746094 191.17480469 C27.60412451 192.53074533 26.60547782 193.92098626 25.62109375 195.3203125 C25.20601562 195.82304688 24.7909375 196.32578125 24.36328125 196.84375 C23.70328125 196.84375 23.04328125 196.84375 22.36328125 196.84375 C22.11578125 197.565625 21.86828125 198.2875 21.61328125 199.03125 C19.98317037 202.69899949 17.75640428 205.49106062 14.8828125 208.28125 C13.36655853 209.84038004 12.20234015 211.41803177 10.98828125 213.21875 C8.73581653 216.44525351 6.1472172 219.05981405 3.36328125 221.84375 C2.00918805 223.82975337 0.67870501 225.83192543 -0.63671875 227.84375 C-1.7348356 229.21450395 -2.83963824 230.57991513 -3.94921875 231.94140625 C-7.54136249 236.54736384 -10.26277036 241.26282764 -12.76171875 246.53125 C-13.18694824 247.42030029 -13.61217773 248.30935059 -14.05029297 249.2253418 C-18.51773308 259.03778548 -20.75395969 269.27121599 -22.63671875 279.84375 C-22.03085937 279.97007812 -21.425 280.09640625 -20.80078125 280.2265625 C-16.5627689 281.4352375 -14.02006765 284.26872666 -11.63671875 287.84375 C-10.90061397 292.81673692 -11.09634833 296.78230811 -13.38671875 301.28125 C-18.02519797 306.56396244 -18.02519797 306.56396244 -21.82726765 307.22406673 C-22.62566657 307.22649663 -23.42406549 307.22892653 -24.24665833 307.23143005 C-25.62806755 307.246287 -25.62806755 307.246287 -27.03738403 307.26144409 C-28.04058685 307.25694244 -29.04378967 307.2524408 -30.07739258 307.24780273 C-31.1396254 307.25466599 -32.20185822 307.26152924 -33.29627991 307.26860046 C-36.81223879 307.28692034 -40.32775356 307.28302271 -43.84375 307.27734375 C-46.28749233 307.28190375 -48.73123337 307.28720877 -51.17497253 307.29322815 C-56.30037642 307.30217 -61.4256246 307.29972463 -66.55102539 307.28979492 C-73.11501703 307.27831675 -79.6784698 307.29849428 -86.24239063 307.32771206 C-91.29106557 307.34607316 -96.33961144 307.3457815 -101.38831139 307.34007454 C-103.8079879 307.33992125 -106.22767311 307.34597208 -108.64731789 307.35836601 C-112.03450742 307.373268 -115.42070258 307.36260272 -118.80786133 307.34545898 C-119.80499146 307.35512695 -120.80212158 307.36479492 -121.82946777 307.37475586 C-127.96021558 307.30988532 -131.64090982 306.47573574 -136.63671875 302.84375 C-139.37877958 298.9517927 -140.18495408 295.47623082 -139.98828125 290.80078125 C-139.18206243 286.31282984 -136.64296253 283.58002593 -133.07421875 280.96875 C-130.63671875 279.84375 -130.63671875 279.84375 -127.63671875 279.84375 C-127.90484375 278.9775 -128.17296875 278.11125 -128.44921875 277.21875 C-129.16202801 274.8076368 -129.69300574 272.48742886 -130.0859375 270 C-131.42097516 262.04658417 -133.95347477 255.30383436 -137.38671875 248.03125 C-137.99580078 246.72486572 -137.99580078 246.72486572 -138.6171875 245.39208984 C-141.6186021 239.24550129 -145.32559689 234.1303479 -149.63671875 228.84375 C-150.93954233 227.06017972 -152.23330308 225.26989563 -153.51171875 223.46875 C-157.65642308 217.7305477 -162.1031108 212.27709132 -166.63671875 206.84375 C-167.10980469 206.26882813 -167.58289063 205.69390625 -168.0703125 205.1015625 C-169.69582155 203.12963349 -171.3281711 201.17499734 -173.0703125 199.3046875 C-177.37260011 194.62066214 -181.08439956 189.58442395 -184.76171875 184.40625 C-185.51594116 183.35087036 -185.51594116 183.35087036 -186.28540039 182.27416992 C-189.77115995 177.30901249 -192.76159571 172.18103634 -195.63671875 166.84375 C-196.06057861 166.09633545 -196.48443848 165.3489209 -196.92114258 164.57885742 C-200.06920018 158.98860565 -201.96518623 153.07781163 -203.82421875 146.96875 C-204.07421631 146.15494873 -204.32421387 145.34114746 -204.58178711 144.50268555 C-213.23613399 115.00892858 -210.43025503 78.18468355 -195.63671875 50.84375 C-194.6448342 49.17224085 -193.64468895 47.50560856 -192.63671875 45.84375 C-191.50302402 43.78601641 -190.37789681 41.72353754 -189.26171875 39.65625 C-188.38671875 38.05208333 -187.51171875 36.44791667 -186.63671875 34.84375 C-185.97671875 34.84375 -185.31671875 34.84375 -184.63671875 34.84375 C-184.38921875 34.3075 -184.14171875 33.77125 -183.88671875 33.21875 C-180.66352132 27.09467489 -176.57029148 22.58799827 -171.63671875 17.84375 C-170.77046875 16.956875 -169.90421875 16.07 -169.01171875 15.15625 C-166.66418901 12.87049736 -164.19342107 10.88911186 -161.63671875 8.84375 C-160.43015625 7.60625 -160.43015625 7.60625 -159.19921875 6.34375 C-156.50304873 3.71334022 -153.81581793 1.86125525 -150.63671875 -0.15625 C-149.99541016 -0.59710937 -149.35410156 -1.03796875 -148.69335938 -1.4921875 C-106.71527114 -30.31637888 -41.00649023 -32.14194569 0 0 Z M-121.4140625 11.67578125 C-123.63671875 12.84375 -123.63671875 12.84375 -126.94921875 14.17578125 C-130.9221497 15.85453673 -134.24050526 18.16780517 -137.69921875 20.71875 C-138.28509766 21.14027344 -138.87097656 21.56179688 -139.47460938 21.99609375 C-148.18858934 28.3212246 -155.37608884 35.21956393 -161.76171875 43.90625 C-162.28636719 44.61330078 -162.81101562 45.32035156 -163.3515625 46.04882812 C-164.35371945 47.39983717 -165.35330223 48.75276089 -166.34985352 50.10791016 C-167.35314687 51.46124269 -168.38255801 52.79522547 -169.421875 54.12109375 C-171.01302565 56.37735561 -171.76840652 58.83032063 -172.6796875 61.41796875 C-174.28358596 65.48336036 -176.33346408 69.32424279 -178.33203125 73.20703125 C-181.03137599 78.66229383 -181.4276716 83.83969885 -180.63671875 89.84375 C-178.10860808 93.04106644 -176.57891493 93.64745913 -172.63671875 94.46875 C-169.13520521 93.73926801 -168.01386285 92.45398188 -165.83691406 89.703125 C-163.70389471 86.39859379 -162.68912692 82.75831387 -161.51171875 79.03125 C-159.09527473 71.9479015 -156.11847575 65.72958865 -152.01171875 59.46875 C-151.32891846 58.42690552 -151.32891846 58.42690552 -150.63232422 57.36401367 C-148.55612826 54.31067366 -146.46120904 51.55900418 -143.80078125 48.9921875 C-143.08664062 48.28320312 -142.3725 47.57421875 -141.63671875 46.84375 C-141.63671875 46.18375 -141.63671875 45.52375 -141.63671875 44.84375 C-140.75886719 44.44929687 -140.75886719 44.44929687 -139.86328125 44.046875 C-137.53696194 42.78984632 -135.92941383 41.40535982 -134.01171875 39.59375 C-128.59992968 34.76998221 -122.59911362 31.37683119 -116.1796875 28.0546875 C-115.01050781 27.44882812 -113.84132813 26.84296875 -112.63671875 26.21875 C-110.99703125 25.39503906 -110.99703125 25.39503906 -109.32421875 24.5546875 C-106.56528933 22.79827603 -105.61320067 21.91534185 -104.63671875 18.84375 C-104.86032952 14.48334005 -106.48718351 11.82304009 -109.63671875 8.84375 C-114.29615655 7.89068318 -117.42687685 9.46632169 -121.4140625 11.67578125 Z " fill="#913F92" transform="translate(701.63671875,870.15625)"/>
<path d="M0 0 C1.07213242 -0.01007584 2.14426483 -0.02015167 3.24888611 -0.03053284 C6.79184404 -0.05902148 10.33437608 -0.06488989 13.87744141 -0.06811523 C16.34217504 -0.07775546 18.80690695 -0.08784787 21.27163696 -0.09837341 C26.43813049 -0.11633693 31.60447354 -0.12189417 36.77099609 -0.12011719 C43.38784105 -0.11981229 50.00372045 -0.16077477 56.62033653 -0.21243382 C61.7110537 -0.24580668 66.80153769 -0.25187447 71.89235306 -0.25028801 C74.33159337 -0.25382622 76.77083984 -0.26708519 79.20997238 -0.29028511 C82.62374052 -0.3197162 86.03541615 -0.31104337 89.44921875 -0.29296875 C90.45412857 -0.30982727 91.45903839 -0.32668579 92.49440002 -0.34405518 C98.50961807 -0.26321912 101.7638706 0.7103635 106.10846901 4.95359898 C108.95495778 8.34093321 108.68000579 11.62857401 108.64306641 15.88891602 C108.22614329 19.56234672 106.75763175 21.68878776 104.35400391 24.43579102 C100.3276189 27.12004769 96.01486093 27.74712437 91.33447266 28.67211914 C83.91266349 30.33753442 80.77772201 34.58630273 76.79150391 40.87329102 C76.23333984 41.77950195 75.67517578 42.68571289 75.10009766 43.61938477 C68.84719827 50.03238684 61.58687267 52.73343946 52.71728516 53.16235352 C50.7109385 53.16039324 48.70421284 53.15807331 46.69848633 53.1081543 C44.65693879 53.06056806 42.62058318 53.06712461 40.57861328 53.08032227 C32.9232288 52.99780465 26.99148722 52.32998712 20.35400391 48.43579102 C19.41556641 47.97043945 18.47712891 47.50508789 17.51025391 47.02563477 C14.79511471 45.02371148 13.53110302 42.91343735 11.85400391 39.99829102 C8.78826166 34.68385576 5.41894974 31.81242157 0.35400391 28.43579102 C-2.89570831 27.89560139 -6.14456783 27.54743959 -9.41943359 27.19360352 C-13.83209788 26.15721505 -16.45729508 24.2584659 -18.93505859 20.45922852 C-20.22558313 16.78619715 -20.18466208 13.26630466 -19.64599609 9.43579102 C-15.1444359 0.43267063 -9.18188826 -0.01237247 0 0 Z " fill="#8F4193" transform="translate(581.64599609375,1212.564208984375)"/>
<path d="M0 0 C1.03311813 -0.00671722 2.06623627 -0.01343445 3.13066101 -0.02035522 C6.54369932 -0.03934301 9.95654108 -0.04325978 13.36962891 -0.04541016 C15.74468059 -0.05183728 18.11973148 -0.05856558 20.49478149 -0.06558228 C25.47293941 -0.07755682 30.45102792 -0.08126288 35.42919922 -0.08007812 C41.80369309 -0.07987487 48.17774146 -0.10718327 54.55212975 -0.14162254 C59.4575301 -0.16387442 64.36282293 -0.16791619 69.26826859 -0.16685867 C71.61817587 -0.16921696 73.96808602 -0.17805325 76.31794357 -0.19352341 C79.60680993 -0.2131489 82.89471141 -0.20735823 86.18359375 -0.1953125 C87.15110062 -0.20655151 88.11860748 -0.21779053 89.11543274 -0.22937012 C96.05250308 -0.1649033 100.58881187 1.15174212 105.63134766 6.20458984 C107.78305389 10.3229093 107.30189842 14.78841677 106.72119141 19.29052734 C104.36195149 24.37196717 101.87126338 26.27876084 96.72119141 28.29052734 C93.24945182 28.71823261 89.80751101 28.70059901 86.31298828 28.67871094 C84.7606826 28.68659637 84.7606826 28.68659637 83.17701721 28.69464111 C79.76450398 28.70781861 76.35245919 28.6991107 72.93994141 28.68896484 C70.56392324 28.69098622 68.18790569 28.69389818 65.81188965 28.69766235 C60.83547043 28.70208267 55.8592129 28.69566386 50.8828125 28.68164062 C44.50718057 28.66454914 38.13192754 28.67439186 31.75630951 28.69235802 C26.85094351 28.7032036 21.94566718 28.6997459 17.04029846 28.69197464 C14.68957982 28.68997479 12.33885302 28.69242434 9.98814392 28.6994133 C6.70167502 28.70704027 3.41581793 28.69540538 0.12939453 28.67871094 C-1.32490211 28.68781998 -1.32490211 28.68781998 -2.80857849 28.69711304 C-8.04939515 28.64784649 -11.76226131 28.25305386 -16.27880859 25.29052734 C-20.39011242 20.73475823 -21.75149269 17.7387175 -21.69287109 11.68115234 C-20.97676831 7.54667213 -18.52334823 4.83126228 -15.27880859 2.29052734 C-10.39478339 -0.3619938 -5.40763887 -0.00504483 0 0 Z " fill="#943F8F" transform="translate(583.27880859375,1180.70947265625)"/>
<path d="M0 0 C4.01048083 2.25589547 5.91929913 4.95303262 8 9 C8.38768005 11.80076599 8.38768005 11.80076599 8.40405273 14.88842773 C8.41673691 16.04990829 8.42942108 17.21138885 8.44248962 18.4080658 C8.43955399 19.65399002 8.43661835 20.89991425 8.43359375 22.18359375 C8.4388356 23.47185562 8.44407745 24.76011749 8.44947815 26.0874176 C8.45839513 28.81008724 8.4560028 31.53246335 8.44604492 34.25512695 C8.4345596 37.73324719 8.45476525 41.21035146 8.48396206 44.68833828 C8.50678909 48.02014291 8.49985468 51.3517129 8.49609375 54.68359375 C8.51294472 56.54944374 8.51294472 56.54944374 8.53013611 58.45298767 C8.44355949 69.2013604 8.44355949 69.2013604 4 74 C0.76830319 76.72898842 -1.24237769 77.88980039 -5.4375 78.5 C-10.33497454 77.81263515 -14.16413986 76.42498811 -17.18104553 72.43995667 C-20.54382462 66.27368414 -20.56555713 60.56489924 -20.49609375 53.65234375 C-20.49754898 52.48167862 -20.49900421 51.31101349 -20.50050354 50.10487366 C-20.49884961 47.63979595 -20.4873455 45.17470737 -20.46655273 42.7097168 C-20.4375655 38.94600405 -20.44596263 35.18369865 -20.45898438 31.41992188 C-20.45274723 29.01822235 -20.44435649 26.61652726 -20.43359375 24.21484375 C-20.43652939 23.0948851 -20.43946503 21.97492645 -20.44248962 20.82102966 C-20.35006633 13.13544053 -19.6108323 8.06772795 -14.5 2.0625 C-10.21757442 -1.17883465 -5.09270191 -0.83971268 0 0 Z " fill="#983A91" transform="translate(632,734)"/>
<path d="M0 0 C2.52203651 2.17175366 4.53967843 4.53527572 6.64453125 7.10546875 C8.75799637 9.51718442 11.12551355 11.49328265 13.58984375 13.53515625 C15.95361951 15.53185154 18.09179161 17.72249666 20.25 19.9375 C21.5184375 21.175 21.5184375 21.175 22.8125 22.4375 C25.25 24.9375 25.25 24.9375 27.125 27.375 C28.91529052 29.53387974 30.53666086 31.06116878 32.6875 32.8125 C36.79164505 36.28864009 40.66741293 39.71385153 41.66015625 45.20703125 C41.88876471 51.20054862 40.3048104 54.45422017 36.5078125 59.04296875 C32.91861671 62.05466418 29.67114609 61.48474712 25.16015625 61.3203125 C18.38911028 60.42962457 15.32920781 55.95806345 11.25 50.9375 C10.425 50.2775 9.6 49.6175 8.75 48.9375 C5.79946004 46.57706803 3.66540219 43.83598263 1.25 40.9375 C0.425 40.2775 -0.4 39.6175 -1.25 38.9375 C-4.20053996 36.57706803 -6.33459781 33.83598263 -8.75 30.9375 C-9.925625 30.0403125 -9.925625 30.0403125 -11.125 29.125 C-15.92873716 25.1218857 -20.76138143 20.17249939 -21.875 13.8125 C-21.70806643 8.63755918 -20.54268989 5.17836236 -17.25 1.0625 C-12.62615699 -2.40538226 -5.15638791 -1.99224078 0 0 Z " fill="#953E8F" transform="translate(758.75,1087.0625)"/>
<path d="M0 0 C4.12058003 2.06029002 6.31524117 3.74215497 8 8 C8.265625 10.4375 8.265625 10.4375 8.25 13 C8.25773438 14.2684375 8.25773438 14.2684375 8.265625 15.5625 C7.52320664 22.37528023 2.03451598 26.12609102 -2.875 30.3125 C-6.39172694 33.35238261 -9.41053563 36.6265801 -12.421875 40.16015625 C-15.65779147 43.93272223 -19.23275894 47.21245999 -23 50.4375 C-25.48378779 52.56845065 -27.59748086 54.6364597 -29.5625 57.25 C-32.53059608 60.59862121 -34.707826 61.7632719 -39 63 C-43.09154259 63.18704195 -46.2617476 62.44295144 -49.8125 60.3125 C-53.46064683 56.45588764 -55.31027464 53.10486332 -55.1875 47.75 C-53.91782343 39.47617353 -46.80085697 33.32670835 -40.578125 28.28125 C-36.69292688 25.12693074 -33.46027077 21.38804965 -30.1875 17.625 C-26.93460119 13.92936259 -23.50956339 10.67213161 -19.75 7.5 C-17.85959992 5.925368 -17.85959992 5.925368 -15.75 3.6875 C-11.19583389 -0.70401732 -6.02984902 -0.77988584 0 0 Z " fill="#B02279" transform="translate(792,801)"/>
<path d="M0 0 C3.47765034 2.38467452 4.85126664 5.56990187 6.1875 9.5 C6.87243447 14.38015811 6.17394125 17.55025604 3.5234375 21.7421875 C1.06099975 24.98223718 -1.85257941 27.72088903 -4.8125 30.5 C-5.658125 31.345625 -6.50375 32.19125 -7.375 33.0625 C-8.179375 33.866875 -8.98375 34.67125 -9.8125 35.5 C-10.33070313 36.04140625 -10.84890625 36.5828125 -11.3828125 37.140625 C-12.82314719 38.62966666 -14.31470318 40.06877193 -15.8125 41.5 C-16.4725 41.5 -17.1325 41.5 -17.8125 41.5 C-18.06515625 42.09167969 -18.3178125 42.68335938 -18.578125 43.29296875 C-19.95798898 45.76013061 -21.37611107 47.03711829 -23.5625 48.8125 C-26.92300214 51.64239654 -29.7497337 54.59046168 -32.48828125 58.01953125 C-34.62079992 60.40367455 -36.36030988 61.43801146 -39.51953125 61.87109375 C-48.93972381 62.07253183 -48.93972381 62.07253183 -52.4375 59.3125 C-55.72427797 55.42026293 -56.67346301 53.05721428 -57.125 48 C-56.40084628 39.88947828 -49.17054033 33.38110185 -43.1875 28.3125 C-42.60613281 27.83039063 -42.02476562 27.34828125 -41.42578125 26.8515625 C-37.56884299 23.62032609 -34.29276117 19.91103473 -31 16.125 C-27.74834201 12.43077231 -24.3251352 9.17418449 -20.56640625 6.00390625 C-18.66172293 4.41626476 -18.66172293 4.41626476 -16.5 2.125 C-12.2693186 -1.94898949 -5.38169844 -0.95674639 0 0 Z " fill="#B02279" transform="translate(508.8125,1086.5)"/>
<path d="M0 0 C3.52127491 2.526132 6.0627706 5.49220794 8.859375 8.78515625 C11.1570828 11.38120983 13.6312744 13.54277073 16.296875 15.74609375 C20.16914249 18.97617826 23.44702673 22.70887137 26.75 26.5 C29.23184276 29.3283642 31.70952578 31.87257467 34.625 34.25 C38.31943367 37.34419388 41.38836428 40.27814099 42.25390625 45.23046875 C42.53518889 50.6474279 41.48655038 53.84902456 37.875 58.0625 C34.58012021 61.35737979 31.4847416 61.90623757 26.875 62.0625 C21.55599561 60.4117745 18.62179847 58.09030835 14.875 54.0625 C13.71818713 53.0717112 12.5508846 52.09307741 11.375 51.125 C9.08794395 49.19931861 7.11879146 47.27055098 5.25 44.9375 C3.02048816 42.03937894 3.02048816 42.03937894 0.375 40.0625 C-2.57553996 37.70206803 -4.70959781 34.96098263 -7.125 32.0625 C-7.90875 31.44375 -8.6925 30.825 -9.5 30.1875 C-14.18714125 26.39314756 -18.8179568 21.71919247 -21.125 16.0625 C-21.57566982 10.47419427 -21.35440481 6.85092782 -18.125 2.0625 C-13.13020634 -2.47822151 -6.10840268 -1.8325208 0 0 Z " fill="#953F8F" transform="translate(473.125,801.9375)"/>
<path d="M0 0 C1.2830603 -0.00241196 2.56612061 -0.00482391 3.88806152 -0.00730896 C6.59480759 -0.01015629 9.30072129 0.00442688 12.00732422 0.03198242 C15.46071506 0.06606562 18.91261918 0.06003808 22.36608124 0.04131985 C25.6816992 0.02815401 28.99689235 0.04648201 32.3125 0.0625 C33.5449646 0.05754013 34.7774292 0.05258026 36.04724121 0.04747009 C42.76381813 0.13931518 47.26338701 0.47057112 52.65625 4.62890625 C55.00318138 8.14930332 54.98348764 9.82947634 55.03125 14.00390625 C55.05960938 15.12539063 55.08796875 16.246875 55.1171875 17.40234375 C54.54716051 21.3925327 53.62167455 22.91299963 50.65625 25.62890625 C44.34123359 28.07706303 38.14880479 27.93514589 31.44140625 27.9296875 C30.27169785 27.93397263 29.10198944 27.93825775 27.89683533 27.94267273 C25.43000942 27.94840033 22.96316662 27.94892791 20.49633789 27.94458008 C16.7348942 27.94141981 12.97423725 27.9649013 9.21289062 27.99023438 C6.80989682 27.99250758 4.40690091 27.99321077 2.00390625 27.9921875 C0.88597183 28.00139725 -0.23196259 28.01060699 -1.3837738 28.02009583 C-7.74873502 27.98262048 -12.57487823 27.38866319 -18.34375 24.62890625 C-21.41170796 21.4619819 -22.28610449 18.66652539 -22.53125 14.25390625 C-22.25390882 8.89197675 -21.52795117 6.75005773 -17.58789062 3.01977539 C-12.2332546 -0.67221403 -6.27598109 -0.06751372 0 0 Z " fill="#953E8F" transform="translate(811.34375,960.37109375)"/>
<path d="M0 0 C1.93027039 -0.00218285 1.93027039 -0.00218285 3.89953613 -0.00440979 C6.61633909 -0.00579007 9.33261174 0.00670062 12.04931641 0.02954102 C15.51944943 0.05792552 18.98870228 0.05518384 22.45890045 0.0424509 C25.78519126 0.03379574 29.11122399 0.04895072 32.4375 0.0625 C33.67826294 0.05956436 34.91902588 0.05662872 36.1973877 0.05360413 C46.9714663 0.17127219 46.9714663 0.17127219 51.71875 3.49609375 C55.16489613 7.28685449 55.18545137 11.15124863 54.98828125 16.05859375 C54.5931188 19.6322368 53.99273155 21.67084395 51.71875 24.49609375 C44.99733116 27.9405743 37.91015978 27.93574758 30.52734375 27.89453125 C29.38266129 27.89740143 28.23797882 27.90027161 27.05860901 27.90322876 C24.65080263 27.90526071 22.24297942 27.89979206 19.83520508 27.88720703 C16.16384793 27.87112703 12.49358911 27.88709399 8.82226562 27.90625 C6.47395592 27.9042677 4.1256469 27.90042431 1.77734375 27.89453125 C0.68755722 27.90060394 -0.40222931 27.90667664 -1.52503967 27.91293335 C-7.81223886 27.8552912 -12.57731307 27.20642527 -18.28125 24.49609375 C-21.32193579 21.35732132 -22.20189165 18.5475919 -22.53125 14.18359375 C-22.17626082 8.94750327 -20.82806457 5.9466452 -16.99414062 2.35131836 C-11.94583283 -0.85091972 -5.75569868 -0.05211261 0 0 Z " fill="#953E8F" transform="translate(408.28125,960.50390625)"/>
<path d="M0 0 C6.14268067 0.94502779 6.14268067 0.94502779 8.35546875 3.66796875 C10.7447235 8.12733592 11.74089169 11.90636962 11 17 C8.39629662 22.83229556 4.61313184 26.6686658 0 31 C-0.845625 31.845625 -1.69125 32.69125 -2.5625 33.5625 C-3.366875 34.366875 -4.17125 35.17125 -5 36 C-5.51820313 36.54140625 -6.03640625 37.0828125 -6.5703125 37.640625 C-8.01064719 39.12966666 -9.50220318 40.56877193 -11 42 C-11.66 42 -12.32 42 -13 42 C-13.25265625 42.59167969 -13.5053125 43.18335938 -13.765625 43.79296875 C-15.14548898 46.26013061 -16.56361107 47.53711829 -18.75 49.3125 C-22.11050214 52.14239654 -24.9372337 55.09046168 -27.67578125 58.51953125 C-29 60 -29 60 -32 62 C-34.6875 62.125 -34.6875 62.125 -37 62 C-34.74311456 58.27243922 -32.55244937 54.65987008 -29.75 51.3125 C-27.8448389 49.15367069 -27.8448389 49.15367069 -27.55859375 46.62109375 C-26.94541396 43.7438655 -25.99929313 42.14073042 -24.3125 39.75 C-23.77625 38.97527344 -23.24 38.20054688 -22.6875 37.40234375 C-22.130625 36.60957031 -21.57375 35.81679687 -21 35 C-17.64930555 30.11088574 -14.60557804 25.33523122 -12 20 C-11.01268258 18.65724831 -10.01405257 17.32267727 -9 16 C-8.67 15.319375 -8.34 14.63875 -8 13.9375 C-7 12 -7 12 -5.375 10.4375 C-3.65438868 8.97021721 -3.65438868 8.97021721 -4 6 C-2.72245446 3.9639118 -1.39300182 1.95890881 0 0 Z " fill="#813F9A" transform="translate(504,1086)"/>
<path d="M0 0 C4.04053559 0.18366071 5.71563018 0.75354616 8.8125 3.4375 C11.73278046 6.85839997 12.15481626 8.46923243 12.1875 12.875 C12.20167969 13.73867188 12.21585938 14.60234375 12.23046875 15.4921875 C11.5999666 22.35290576 6.04836138 26.11428487 1.125 30.3125 C-2.39172694 33.35238261 -5.41053563 36.6265801 -8.421875 40.16015625 C-11.65779147 43.93272223 -15.23275894 47.21245999 -19 50.4375 C-21.5053943 52.58632133 -23.6358249 54.68165552 -25.625 57.3125 C-28.28614845 60.32379956 -30.1364307 61.10149551 -34 62 C-31.78620552 55.76112463 -28.24171131 50.14477408 -24.9375 44.4375 C-23.53687746 41.95252452 -22.24567362 39.49670495 -21 36.9375 C-19.2709902 33.41821628 -17.21026858 30.24172725 -15 27 C-14.31731862 25.67479497 -13.6492959 24.34187818 -13 23 C-11.30447816 20.01265199 -9.45401718 17.21317659 -7.4375 14.4375 C-5.6964448 12.0344268 -4.25265046 9.69801636 -3 7 C-2.34 6.01 -1.68 5.02 -1 4 C-1 3.01 -1 2.02 -1 1 C-0.67 0.67 -0.34 0.34 0 0 Z " fill="#853998" transform="translate(788,801)"/>
<path d="M0 0 C3 1 3 1 4.1875 3.125 C5.6152677 8.17710108 5.5939669 11.66951415 3.4375 16.5 C0.86973622 20.56107322 -2.52047253 23.72608097 -6 27 C-7.2065625 28.2375 -7.2065625 28.2375 -8.4375 29.5 C-11.83339921 32.8130724 -15.40566953 35.90512985 -19 39 C-19.495 37.515 -19.495 37.515 -20 36 C-18.73945916 33.56895694 -17.45679681 31.30531706 -16 29 C-13.20156795 24.41057144 -10.71611377 19.82609012 -8.75 14.8125 C-6.53621826 9.49942382 -3.15881877 4.78582679 0 0 Z " fill="#6B67B0" transform="translate(510,1090)"/>
<path d="M0 0 C2.44079758 2.33467595 3.90708364 3.75967468 4.16796875 7.2421875 C4.17441406 8.11101563 4.18085937 8.97984375 4.1875 9.875 C4.20167969 10.73867188 4.21585938 11.60234375 4.23046875 12.4921875 C3.52398764 20.17965992 -3.69848824 24.64999076 -9.12890625 29.3515625 C-11.17403506 31.15332526 -13.11249792 33.033852 -15 35 C-15.6875 33.3125 -15.6875 33.3125 -16 31 C-15.0727001 29.29181597 -14.05287814 27.63377642 -13 26 C-12.37623124 24.6337808 -11.77405885 23.25760301 -11.1875 21.875 C-9.18889072 17.2705117 -6.82829319 12.91818291 -4.39453125 8.53125 C-2.84708894 5.72244716 -1.40260242 2.88312719 0 0 Z " fill="#6473B7" transform="translate(796,804)"/>
<path d="M0 0 C0.66 0.33 1.32 0.66 2 1 C0.63378902 3.78882517 -0.83342194 6.49219313 -2.375 9.1875 C-4.51749613 13.01878719 -6.35236004 16.9104281 -8.1015625 20.93359375 C-9.78465065 24.80469649 -11.33857949 28.24131177 -14.125 31.4375 C-16.28711125 33.91911229 -16.28711125 33.91911229 -16.25 37.3125 C-17.36029465 42.77144872 -20.91751374 45.41968744 -25 49 C-25.99 48.67 -26.98 48.34 -28 48 C-27.04547608 45.85232118 -26.09044254 43.70489045 -25.1328125 41.55859375 C-24.43025103 39.97177389 -23.73591348 38.38125182 -23.0546875 36.78515625 C-19.55390465 28.65098433 -15.66934133 20.8423085 -10 14 C-9.3503125 12.6078125 -9.3503125 12.6078125 -8.6875 11.1875 C-6.4082681 6.88228419 -3.29579016 3.55764746 0 0 Z " fill="#7654A6" transform="translate(508,1089)"/>
<path d="M0 0 C0.66 0.33 1.32 0.66 2 1 C0.3154866 7.1174434 -2.14064527 12.07683576 -5.5078125 17.4375 C-8.50162337 22.57870401 -11.4820878 28.98618042 -12.25 34.9375 C-13.34740157 37.95535433 -15.47494186 39.02386754 -18 41 C-19.87076804 43.05583327 -21.66558244 45.16130584 -23.44921875 47.29296875 C-25 49 -25 49 -27 50 C-24.86907495 40.59017254 -19.46171177 32.56285026 -14.4296875 24.4765625 C-13.12828992 22.22222898 -12.14232395 20.0403994 -11.1875 17.625 C-9.46735825 13.63559433 -7.32325117 10.81402279 -4.39453125 7.640625 C-2.42608416 5.32480489 -1.21542436 2.7684666 0 0 Z " fill="#7458A8" transform="translate(793,804)"/>
<path d="M0 0 C0.66 0 1.32 0 2 0 C1.41661834 3.24022824 0.47106152 4.8461268 -1.8125 7.1875 C-4.77586712 10.49034593 -6.40199159 13.73988936 -8.078125 17.8203125 C-9.15049498 20.35583135 -10.47975098 22.70338546 -11.875 25.07421875 C-15.55027187 31.36556956 -18.90227319 37.78219399 -22 44.375 C-24.7445903 49.91447413 -27.30260346 53.73510118 -33.375 55.8125 C-33.91125 55.874375 -34.4475 55.93625 -35 56 C-35 55.34 -35 54.68 -35 54 C-33.57421875 52.703125 -33.57421875 52.703125 -31.6875 51.25 C-28.33127294 48.46547494 -26.77240849 46.02820111 -25 42 C-24.18307236 40.67722643 -23.34844158 39.36528455 -22.5 38.0625 C-20.23724408 34.51638997 -18.64926973 30.8721985 -17 27 C-15.68693567 24.9866347 -14.35162508 22.98768394 -13 21 C-12.23889908 19.63111345 -11.48989025 18.25546638 -10.75 16.875 C-7.54771401 11.03905825 -4.0518117 5.28613844 0 0 Z " fill="#7E47A0" transform="translate(789,807)"/>
<path d="M0 0 C0.66 0 1.32 0 2 0 C2.46646316 5.71417376 1.44018696 9.47975434 -2 14 C-4.22925578 16.45218136 -6.58318223 18.73458381 -9 21 C-10.00342267 21.99656557 -11.00454883 22.99547177 -12 24 C-12.99 23.67 -13.98 23.34 -15 23 C-14.4225 22.154375 -13.845 21.30875 -13.25 20.4375 C-11.78096114 18.24161961 -10.47909967 16.06597183 -9.1875 13.75 C-6.48722101 8.96265279 -3.4783983 4.25803929 0 0 Z " fill="#5486C3" transform="translate(513,1096)"/>
<path d="M0 0 C0.66 0.33 1.32 0.66 2 1 C-2.39612326 10.27870278 -2.39612326 10.27870278 -5.25 13.6875 C-7.29772322 15.95951964 -7.29772322 15.95951964 -7.25 19.3125 C-8.36029465 24.77144872 -11.91751374 27.41968744 -16 31 C-16.99 30.67 -17.98 30.34 -19 30 C-18.60167969 29.49210937 -18.20335937 28.98421875 -17.79296875 28.4609375 C-14.69857093 24.44047902 -12.23266641 20.57165027 -10 16 C-9.54238281 15.57589844 -9.08476562 15.15179687 -8.61328125 14.71484375 C-6.4030587 12.36547886 -5.26639209 9.77664683 -3.875 6.875 C-1.08333333 1.08333333 -1.08333333 1.08333333 0 0 Z " fill="#715EAA" transform="translate(499,1107)"/>
<path d="M0 0 C0.66 0 1.32 0 2 0 C1.352422 3.71919795 -0.31573529 6.30515853 -2.375 9.4375 C-4.15251023 12.15671245 -5.91954769 14.86578103 -7.58984375 17.65234375 C-8.71395209 19.52378173 -9.93557776 21.33653966 -11.1875 23.125 C-13.26665046 25.85652213 -13.26665046 25.85652213 -13 29 C-14.53125 30.60546875 -14.53125 30.60546875 -16.5 32.1875 C-17.1496875 32.71730469 -17.799375 33.24710938 -18.46875 33.79296875 C-18.9740625 34.19128906 -19.479375 34.58960938 -20 35 C-19.48771456 30.5175024 -17.84960519 28.41952623 -15 25 C-13.62519759 22.68002094 -12.29415638 20.36324208 -11 18 C-8.55850407 13.62214522 -6.0118264 9.32618823 -3.375 5.0625 C-2.78460938 4.10472656 -2.19421875 3.14695312 -1.5859375 2.16015625 C-1.06257813 1.44730469 -0.53921875 0.73445313 0 0 Z " fill="#6276B9" transform="translate(512,1093)"/>
<path d="M0 0 C0.33 0 0.66 0 1 0 C1.23224409 6.03834646 0.95166933 8.87612455 -3.125 13.3125 C-6.674833 16.63082215 -10.31797963 19.82962514 -14 23 C-14.66 22.67 -15.32 22.34 -16 22 C-15.52949219 21.56429687 -15.05898438 21.12859375 -14.57421875 20.6796875 C-10.72540562 16.99821407 -8.24445111 13.87924154 -6 9 C-4.09858937 5.93353405 -2.15094564 2.89798065 0 0 Z " fill="#5388C4" transform="translate(799,812)"/>
<path d="M0 0 C0.33 0.66 0.66 1.32 1 2 C0.0520411 4.02518491 -0.95191959 6.02477154 -2 8 C-3.03551496 10.78617251 -3.03551496 10.78617251 -3.25 12.9375 C-4.34740157 15.95535433 -6.47494186 17.02386754 -9 19 C-10.87076804 21.05583327 -12.66558244 23.16130584 -14.44921875 25.29296875 C-16 27 -16 27 -18 28 C-17.52353463 23.71181167 -14.94800383 21.94800383 -12 19 C-11.00924681 17.33809143 -10.02120638 15.67314331 -9.10546875 13.96875 C-6.9706659 10.16683963 -4.44609218 6.60623876 -2 3 C-1.34 2.01 -0.68 1.02 0 0 Z " fill="#6B65AE" transform="translate(784,826)"/>
<path d="M0 0 C0 3.52178007 -0.40762789 3.72464838 -2.75 6.125 C-5.7792198 9.48131865 -7.37171263 12.78224742 -9.0703125 16.9375 C-10.30185936 19.66967118 -12.07631429 21.71562322 -14 24 C-14.72822631 25.23851627 -15.43593901 26.4892736 -16.125 27.75 C-18 31 -18 31 -20 32 C-17.48322543 25.28860114 -14.53382634 19.55759358 -10 14 C-9.3503125 12.6078125 -9.3503125 12.6078125 -8.6875 11.1875 C-6.4082681 6.88228419 -3.29579016 3.55764746 0 0 Z " fill="#7C4BA1" transform="translate(508,1089)"/>
<path d="M0 0 C0.66 0.66 1.32 1.32 2 2 C1.66064538 5.69250146 -0.37792551 8.39975589 -2.375 11.4375 C-4.17792122 14.19558586 -5.95873921 16.92824648 -7.6015625 19.78515625 C-9 22 -9 22 -11 23 C-10.42693598 18.98855183 -9.18103491 16.39272097 -7 13 C-4.88301515 9.3929835 -2.81517098 5.76997051 -1 2 C-0.67 1.34 -0.34 0.68 0 0 Z " fill="#5D7FBD" transform="translate(798,807)"/>
<path d="M0 0 C0.99 0.33 1.98 0.66 3 1 C2 4 2 4 -0.375 6.3125 C-3.10147862 9.10389478 -4.35413739 11.49359705 -6 15 C-9.61643836 20.80821918 -9.61643836 20.80821918 -12 22 C-11.44398441 18.22041785 -10.45411339 15.79484542 -8.25 12.6875 C-5.36497161 8.53417411 -2.6513168 4.30545694 0 0 Z " fill="#893596" transform="translate(488,1113)"/>
<path d="M0 0 C0.66 0.33 1.32 0.66 2 1 C1.44197309 4.78661115 0.44024701 7.24768854 -1.75 10.375 C-2.28367187 11.14457031 -2.81734375 11.91414062 -3.3671875 12.70703125 C-3.90601563 13.46371094 -4.44484375 14.22039063 -5 15 C-5.49757813 15.70511719 -5.99515625 16.41023437 -6.5078125 17.13671875 C-7.6631255 18.76405963 -8.83025608 20.38300105 -10 22 C-10.33 21.34 -10.66 20.68 -11 20 C-9.73007275 17.60124852 -8.41308468 15.31146964 -7 13 C-4.51034627 8.73992583 -2.16400762 4.43621563 0 0 Z " fill="#6969B1" transform="translate(796,804)"/>
<path d="M0 0 C0.66 0 1.32 0 2 0 C2 4 2 4 -0.125 6.25 C-1.548125 7.61125 -1.548125 7.61125 -3 9 C-5.07663357 11.61159773 -7.04687058 14.29515066 -9 17 C-9.33 16.01 -9.66 15.02 -10 14 C-8.836272 12.53702766 -7.66050762 11.08107253 -6.41015625 9.69140625 C-4.18316822 7.02025441 -2.67090529 4.04343463 -1 1 C-0.67 0.67 -0.34 0.34 0 0 Z " fill="#5A83BF" transform="translate(513,1096)"/>
<path d="M0 0 C0.66 0 1.32 0 2 0 C0.42527704 4.46171506 -1.59377029 9.79688514 -6 12 C-5.42316338 8.10635283 -3.45178223 5.98810959 -1 3 C-0.67 2.01 -0.34 1.02 0 0 Z " fill="#676CB3" transform="translate(511,1091)"/>
<path d="M0 0 C0.33 0.66 0.66 1.32 1 2 C0.22265625 3.7265625 0.22265625 3.7265625 -0.9375 5.625 C-1.618125 6.73875 -2.29875 7.8525 -3 9 C-3.99 8.67 -4.98 8.34 -6 8 C-4.02 5.36 -2.04 2.72 0 0 Z " fill="#8A3295" transform="translate(473,1139)"/>
<path d="M0 0 C1 3 1 3 0.25 5.125 C-1 7 -1 7 -4 8 C-3.50168276 4.31245243 -2.89932357 2.39509338 0 0 Z " fill="#4B9ACC" transform="translate(799,816)"/>
<path d="M0 0 C0.33 0.66 0.66 1.32 1 2 C0.22265625 3.7265625 0.22265625 3.7265625 -0.9375 5.625 C-1.618125 6.73875 -2.29875 7.8525 -3 9 C-3.33 8.01 -3.66 7.02 -4 6 C-2.84338843 3.79192337 -1.77322566 1.77322566 0 0 Z " fill="#489DCD" transform="translate(514,1101)"/>
</svg>
